<svg width="2047" height="538" viewBox="0 0 2047 538" fill="none" xmlns="http://www.w3.org/2000/svg">
<path d="M432.206 421.413C419.37 418.783 406.219 425.622 400.748 437.828C400.011 439.406 399.38 441.09 398.854 442.563C383.809 442.563 369.079 442.563 353.929 442.563C353.929 440.669 353.929 439.09 353.929 437.512C353.929 409.839 354.034 382.165 353.824 354.597C353.824 350.915 355.086 349.021 358.137 347.232C392.752 327.345 424.105 303.144 453.038 275.786C458.824 270.315 458.824 267.474 452.932 262.002C423.999 234.645 392.646 210.338 358.032 190.557C354.771 188.663 353.824 186.663 353.824 183.086C353.929 155.939 353.824 128.792 353.824 101.75C353.824 99.6451 353.824 97.6459 353.824 94.9101C356.243 94.9101 358.032 94.9101 359.926 94.9101C370.552 94.9101 381.284 95.1206 391.91 94.8049C396.75 94.5944 399.064 95.8571 401.169 100.592C407.06 114.376 422.842 120.374 436.835 115.007C450.512 109.641 457.982 94.8049 453.879 80.8104C449.671 66.395 435.362 57.7668 420.843 60.9235C409.27 63.4488 402.431 71.0248 398.749 82.1783C382.546 82.1783 366.554 82.1783 350.457 82.1783C342.671 82.1783 340.988 83.8618 340.988 91.7535C340.988 119.532 340.988 147.416 340.988 175.194C340.988 176.983 340.883 178.772 340.672 181.718C293.222 156.36 245.877 154.045 197.48 178.772C197.48 175.51 197.48 173.616 197.48 171.722C197.48 144.785 197.48 117.848 197.48 90.9117C197.48 84.2827 195.376 82.1783 188.643 82.1783C173.808 82.1783 158.868 82.0731 144.033 82.2835C140.877 82.2835 139.193 81.547 137.931 78.2851C132.881 65.448 119.729 58.1877 106.788 60.7131C93.1111 63.3436 83.4317 74.8128 83.3265 88.3864C83.2212 101.96 93.0059 113.85 106.368 116.481C119.624 119.111 132.881 111.956 138.036 98.9085C139.299 95.5414 140.982 94.9101 144.138 94.9101C156.027 95.0153 167.916 94.9101 179.805 95.0153C181.278 95.0153 182.856 95.2258 184.645 95.4362C184.645 97.4354 184.645 99.0138 184.645 100.592C184.645 127.003 184.539 153.413 184.75 179.824C184.75 183.507 183.592 185.401 180.436 187.084C143.086 207.287 109.84 233.066 79.0128 262.002C72.7002 267.895 72.7002 270.315 79.0128 276.102C109.84 305.038 143.191 330.817 180.436 351.125C183.592 352.809 184.855 354.703 184.75 358.385C184.539 382.692 184.645 406.998 184.645 431.409C184.645 435.092 184.645 438.67 184.645 443.194C170.546 443.194 157.185 443.089 143.928 443.299C140.666 443.299 139.193 442.352 137.931 439.196C132.776 426.148 119.414 418.993 106.157 421.729C93.0059 424.465 83.3265 436.039 83.2212 449.402C83.0108 462.871 92.7954 474.655 106.368 477.391C119.835 480.022 132.776 473.077 137.931 459.924C139.088 456.873 140.561 456.031 143.612 456.031C158.342 456.136 172.966 456.136 187.696 456.136C195.692 456.136 197.375 454.348 197.375 446.245C197.375 419.624 197.375 393.003 197.375 366.487C197.375 364.593 197.375 362.805 197.375 360.174C220.837 370.275 244.194 378.062 269.339 377.22C294.485 376.378 317.736 367.855 340.883 357.123C340.883 360.069 340.883 361.963 340.883 363.857C340.883 391.004 340.883 418.151 340.883 445.193C340.883 454.979 342.04 456.136 351.614 456.242C365.292 456.242 378.969 456.452 392.541 456.136C396.96 456.031 399.17 457.189 400.958 461.503C406.219 474.024 419.686 480.443 432.942 477.391C445.883 474.445 454.931 462.976 454.826 449.613C454.826 435.513 445.462 424.149 432.206 421.413ZM426.945 72.9188C435.362 73.024 442.201 80.1791 442.096 88.4916C441.99 97.0145 434.626 104.064 426.209 103.854C417.897 103.644 411.164 96.4884 411.374 88.0707C411.479 79.653 418.528 72.8136 426.945 72.9188ZM111.207 103.854C102.79 103.538 96.1622 96.4884 96.3726 88.0707C96.4778 79.653 103.527 72.8136 111.944 73.024C120.361 73.1292 127.199 80.1791 127.094 88.5968C127.094 97.1198 119.729 104.17 111.207 103.854ZM111.733 464.659C103.317 464.659 96.4778 457.82 96.4778 449.297C96.4778 440.774 103.211 433.935 111.628 433.724C120.15 433.619 127.305 440.669 127.199 449.402C127.094 457.82 120.045 464.764 111.733 464.659ZM90.586 268.631C117.415 244.009 145.717 221.913 178.016 202.868C149.188 250.112 151.398 294.516 183.698 337.236C172.651 335.131 109.84 289.255 90.586 268.631ZM347.09 338.183C348.353 336.394 349.194 335.237 350.141 334.079C365.397 314.718 373.288 292.832 373.814 268.21C373.919 262.423 370.026 259.056 365.397 260.634C361.609 261.897 361.083 265.159 360.873 268.631C360.031 293.043 351.509 314.297 334.675 332.08C306.9 361.332 263.658 369.854 227.15 353.335C190.115 336.604 167.6 298.725 171.388 258.425C173.387 236.749 183.382 218.861 197.27 202.236C216.103 179.614 240.932 174.037 268.182 174.142C294.169 174.247 317.736 183.822 340.357 195.607C377.286 214.758 409.901 239.906 440.412 267.895C440.623 268.105 440.728 268.421 441.149 269.052C421.159 289.781 368.132 328.818 347.09 338.183ZM427.05 464.659C418.634 464.87 411.584 458.136 411.269 449.718C411.058 441.09 418.002 433.829 426.524 433.724C434.836 433.619 441.99 440.564 442.096 448.981C442.306 457.294 435.467 464.449 427.05 464.659Z" fill="#FFF"/>
<path d="M535.523 361.437C530.789 347.863 517.848 338.709 503.434 338.604C488.915 338.604 476.29 347.653 471.45 361.437C470.819 363.12 469.346 365.856 468.188 365.856C455.774 366.172 443.464 366.066 430.628 366.066C430.628 362.91 430.628 360.279 430.628 357.754C430.628 351.335 428.524 348.389 424.105 348.494C419.686 348.494 417.898 351.335 417.792 357.964C417.792 361.858 417.792 365.646 417.792 369.539C417.792 377.325 419.581 379.114 427.367 379.114C441.465 379.114 455.668 379.114 469.977 379.114C470.714 381.429 471.134 383.112 471.766 384.796C478.289 401.947 497.542 410.786 514.797 404.578C532.367 398.159 541.52 379.009 535.523 361.437ZM503.434 393.634C492.071 393.634 482.392 383.954 482.392 372.485C482.392 360.911 491.861 351.651 503.434 351.651C515.113 351.651 524.266 360.911 524.266 372.59C524.266 384.27 514.902 393.634 503.434 393.634Z" fill="#FFF"/>
<path d="M418.002 327.345C418.002 331.449 421.58 335.026 425.683 334.921C429.786 334.921 433.258 331.238 433.153 327.135C433.153 323.031 429.576 319.454 425.472 319.559C421.369 319.559 418.002 323.136 418.002 327.345Z" fill="#FFF"/>
<path d="M111.734 379.009C117.731 379.009 119.835 376.799 119.94 370.802C120.046 366.067 120.046 361.332 119.94 356.597C119.835 351.02 117.626 348.284 113.417 348.39C109.209 348.495 107.21 351.231 107.105 356.913C107.105 359.859 107.105 362.7 107.105 365.856C93.5325 365.856 80.6967 365.856 67.7558 365.856C67.1245 364.173 66.7037 362.7 66.1776 361.227C61.1275 347.127 47.5553 337.867 33.0362 338.709C17.6754 339.551 5.26054 349.547 1.47295 364.173C0.946898 366.067 0.526054 367.856 0 369.75C0 371.854 0 373.959 0 376.063C0.315633 377.01 0.841687 377.957 1.05211 378.904C4.10322 393.951 16.6233 405.315 31.4581 406.472C47.0293 407.735 61.2327 398.37 66.3881 383.534C66.9141 382.061 67.4402 380.693 67.9662 379.114C82.801 379.009 97.2148 379.114 111.734 379.009ZM34.404 393.635C22.936 393.74 13.467 384.27 13.467 372.696C13.467 360.911 22.5151 351.757 34.1935 351.652C45.8719 351.652 55.2357 360.806 55.3409 372.485C55.4461 383.744 45.7667 393.53 34.404 393.635Z" fill="#FFF"/>
<path d="M31.6685 198.659C47.6605 199.711 61.1275 190.767 66.4933 175.616C66.9141 174.353 67.4402 172.985 67.9662 171.617C81.0124 171.617 93.8481 171.617 107.315 171.617C107.315 175.3 107.21 178.772 107.315 182.244C107.42 186.243 109.419 188.979 113.628 189.084C117.941 189.084 119.94 186.559 120.046 182.455C120.151 178.246 120.046 174.037 120.046 169.828C120.046 159.622 119.099 158.57 109.104 158.57C95.3211 158.57 81.5384 158.57 67.861 158.57C67.2298 156.57 66.8089 155.097 66.2829 153.624C61.1275 139.419 47.8709 130.686 32.5102 131.212C18.0963 131.738 5.36575 142.05 1.57816 156.255C1.05211 158.044 0.526054 159.937 0 161.726C0 163.831 0 165.935 0 168.04C0.315633 169.197 0.736476 170.354 1.05211 171.512C4.20844 186.664 16.5181 197.712 31.6685 198.659ZM34.5092 143.944C45.9771 144.049 55.5513 153.835 55.3409 165.199C55.2357 176.773 45.6615 186.032 34.0883 185.927C22.4099 185.822 13.3618 176.563 13.3618 164.778C13.467 153.203 23.0412 143.839 34.5092 143.944Z" fill="#FFF"/>
<path d="M282.702 474.972C278.178 472.973 273.759 469.711 272.602 464.66C272.181 462.556 272.181 460.452 272.181 458.347C272.391 447.299 272.497 436.251 272.286 425.202C272.181 421.309 269.972 418.994 265.974 418.994C261.976 418.994 259.977 421.414 259.556 425.202C259.345 426.886 259.451 428.675 259.451 430.463C259.451 443.721 259.451 456.979 259.451 470.237C257.557 470.868 256.084 471.289 254.611 471.815C241.67 476.971 233.674 486.441 232.306 500.331C230.938 514.956 237.146 526.215 249.876 533.475C253.138 535.369 256.925 536.316 260.503 537.684C264.395 537.684 268.183 537.684 272.076 537.684C273.864 537.053 275.548 536.316 277.336 535.685C290.383 530.529 298.168 521.164 299.536 507.17C300.904 492.965 295.643 480.549 282.702 474.972ZM265.974 524.847C254.506 524.847 244.931 515.167 244.931 503.803C244.931 492.228 254.295 482.969 265.974 482.969C277.757 482.969 286.911 492.123 286.911 503.803C286.805 515.377 277.442 524.847 265.974 524.847Z" fill="#FFF"/>
<path d="M425.788 158.57C420.002 158.57 417.898 160.674 417.792 166.461C417.687 171.722 417.792 176.984 417.792 182.245C417.792 186.348 419.791 188.979 424 189.084C428.313 189.084 430.312 186.453 430.523 182.455C430.628 178.983 430.523 175.51 430.523 171.407C441.991 171.407 452.722 171.512 463.349 171.302C467.768 171.196 470.187 171.828 471.871 176.878C477.763 194.029 496.911 202.868 514.166 197.081C531.315 191.294 540.994 172.775 535.839 155.413C530.578 137.841 512.798 127.529 495.122 132.159C481.55 135.737 473.554 144.996 469.767 158.57C467.452 158.57 465.137 158.57 462.928 158.57C450.618 158.57 438.203 158.57 425.788 158.57ZM503.224 143.944C514.797 143.839 524.266 153.203 524.266 164.778C524.371 176.457 515.218 185.822 503.644 185.927C492.071 186.033 482.602 176.773 482.392 165.199C482.181 153.94 491.861 144.154 503.224 143.944Z" fill="#FFF"/>
<path d="M259.451 67.4476C259.451 81.9682 259.451 96.1731 259.451 110.273C259.451 115.955 261.555 118.691 265.763 118.691C269.972 118.796 272.181 116.06 272.181 110.378C272.286 98.488 272.497 86.5979 272.181 74.7079C272.076 69.552 273.128 66.9215 278.494 65.0275C295.433 58.8194 303.745 39.8795 297.853 22.8336C292.066 5.89287 273.865 -3.57709 256.505 1.26311C239.25 6.10331 228.729 23.8858 232.832 41.3526C236.199 55.3471 245.563 63.4491 259.451 67.4476ZM266.079 12.8375C277.652 12.9427 286.911 22.4127 286.806 34.0923C286.7 45.7719 277.442 54.821 265.658 54.821C254.085 54.7157 244.721 45.2458 244.826 33.7766C245.037 22.3075 254.716 12.7323 266.079 12.8375Z" fill="#FFF"/>
<path d="M265.448 406.471C269.972 406.682 273.654 403.315 273.864 399.106C273.97 395.002 269.972 391.004 265.868 391.004C261.765 391.004 258.398 394.476 258.293 398.685C258.188 403.104 261.134 406.261 265.448 406.471Z" fill="#FFF"/>
<path d="M418.002 210.338C418.002 214.547 421.369 218.019 425.578 218.019C429.786 218.019 433.153 214.652 433.258 210.443C433.258 206.234 429.891 202.762 425.683 202.762C421.474 202.657 418.002 206.129 418.002 210.338Z" fill="#FFF"/>
<path d="M119.729 327.03C119.624 322.821 116.047 319.454 111.944 319.559C107.841 319.664 104.474 323.242 104.579 327.451C104.684 331.66 108.261 335.027 112.365 334.921C116.468 334.816 119.835 331.133 119.729 327.03Z" fill="#FFF"/>
<path d="M112.155 202.762C107.946 202.762 104.58 206.234 104.58 210.443C104.58 214.652 108.052 218.124 112.155 218.019C116.363 218.019 119.73 214.547 119.73 210.338C119.73 206.234 116.258 202.762 112.155 202.762Z" fill="#FFF"/>
<path d="M265.868 131.213C261.66 131.213 258.188 134.685 258.293 138.894C258.398 143.208 261.765 146.47 266.078 146.26C270.392 146.154 273.548 142.682 273.338 138.263C273.233 134.264 270.076 131.213 265.868 131.213Z" fill="#FFF"/>
<path d="M265.973 204.025C230.412 204.025 201.268 233.172 201.163 268.842C201.163 304.407 230.306 333.764 265.868 333.764C301.429 333.764 330.678 304.512 330.678 268.947C330.783 233.382 301.534 204.025 265.973 204.025ZM266.078 320.611C237.461 320.716 214.209 297.673 214.104 269.158C213.999 240.222 237.145 217.073 265.973 217.073C294.485 217.178 317.737 240.327 317.737 268.842C317.842 297.357 294.696 320.506 266.078 320.611Z" fill="#FFF"/>
<path d="M360.242 224.439C355.929 224.229 352.351 227.491 352.141 231.594C351.931 235.698 355.402 239.381 359.611 239.486C363.819 239.591 367.397 236.119 367.502 232.015C367.502 228.122 364.24 224.65 360.242 224.439Z" fill="#FFF"/>
<path d="M277.546 266.001C273.443 265.896 270.918 263.371 270.391 259.583C269.655 254.322 272.917 251.691 277.756 250.428C269.445 245.378 258.187 248.008 252.085 256.216C245.562 265.16 246.929 277.365 255.346 284.626C263.658 291.781 276.178 291.149 283.858 283.258C290.908 275.997 291.854 264.633 285.963 257.899C285.226 262.739 282.912 266.212 277.546 266.001Z" fill="#FFF"/>
<path d="M820.466 305.592L682.613 105.705H653.894V373.753H689.506V173.483L827.359 373.753H856.078V105.705H820.466V305.592Z" fill="#fff"/>
<path d="M1093.77 293.339C1094.54 288.36 1094.92 283.382 1094.92 278.404C1094.92 250.451 1086.11 226.709 1068.12 207.18C1050.5 187.268 1027.53 177.312 999.573 177.312C970.088 177.312 945.964 186.885 927.201 206.032C908.437 225.178 899.247 249.302 899.247 278.021C899.247 307.124 908.82 331.248 927.583 350.394C946.73 369.158 971.62 378.731 1001.87 378.731C1039.4 378.731 1067.35 364.18 1086.11 335.46L1057.78 319.377C1046.29 338.141 1027.91 347.331 1002.64 347.331C966.259 347.331 939.837 327.419 933.327 293.339H1093.77ZM999.573 208.712C1030.21 208.712 1055.48 227.858 1061.22 264.236H933.327C939.071 230.539 963.961 208.712 999.573 208.712Z" fill="#fff"/>
<path d="M1217.29 274.958L1286.22 182.29H1247.16L1197.76 248.919L1148.37 182.29H1108.93L1178.24 275.341L1104.71 373.753H1143.77L1197.76 301.38L1251.37 373.753H1290.43L1217.29 274.958Z" fill="#fff"/>
<path d="M1425.47 182.29H1374.54V128.681L1341.23 138.637V182.29H1303.32V214.456H1341.23V318.229C1341.23 365.711 1367.27 381.411 1425.47 373.753V343.885C1391.39 345.416 1374.54 347.714 1374.54 318.229V214.456H1425.47V182.29Z" fill="#fff"/>
<path d="M1505.09 255.046H1618.05V221.731H1505.09V139.403H1627.63V105.705H1469.48V373.753H1629.54V340.055H1505.09V255.046Z" fill="#fff"/>
<path d="M1743.47 332.397L1678.38 182.29H1642.77L1726.24 372.987L1722.8 380.263C1711.69 408.216 1694.46 421.236 1671.1 419.321V450.338C1709.39 453.018 1739.65 428.894 1756.11 385.624L1834.23 182.29H1798.62L1743.47 332.397Z" fill="#fff"/>
<path d="M2045.85 293.339C2046.62 288.36 2047 283.382 2047 278.404C2047 250.451 2038.19 226.709 2020.19 207.18C2002.58 187.268 1979.6 177.312 1951.65 177.312C1922.17 177.312 1898.04 186.885 1879.28 206.032C1860.52 225.178 1851.32 249.302 1851.32 278.021C1851.32 307.124 1860.9 331.248 1879.66 350.394C1898.81 369.158 1923.7 378.731 1953.95 378.731C1991.48 378.731 2019.43 364.18 2038.19 335.46L2009.86 319.377C1998.37 338.141 1979.99 347.331 1954.71 347.331C1918.34 347.331 1891.91 327.419 1885.41 293.339H2045.85ZM1951.65 208.712C1982.29 208.712 2007.56 227.858 2013.3 264.236H1885.41C1891.15 230.539 1916.04 208.712 1951.65 208.712Z" fill="#fff"/>
</svg>
