<?xml version="1.0" standalone="no"?>
<!DOCTYPE svg PUBLIC "-//W3C//DTD SVG 20010904//EN"
 "http://www.w3.org/TR/2001/REC-SVG-20010904/DTD/svg10.dtd">
<svg version="1.0" xmlns="http://www.w3.org/2000/svg"
 width="559.000000pt" height="87.000000pt" viewBox="0 0 559.000000 87.000000"
 preserveAspectRatio="xMidYMid meet">

<g transform="translate(0.000000,87.000000) scale(0.100000,-0.100000)"
fill="#000000" stroke="none">
<path d="M359 763 c-40 -38 -66 -70 -61 -75 13 -13 65 -21 57 -8 -10 16 5 12
32 -10 20 -15 41 -20 91 -20 l66 0 -27 -28 c-18 -18 -25 -35 -21 -45 5 -14 19
-5 73 43 37 33 73 60 79 60 16 0 15 15 -1 28 -8 7 -31 6 -77 -5 -67 -15 -185
-12 -203 6 -5 5 12 26 42 52 55 48 59 54 36 63 -10 3 -40 -18 -86 -61z"/>
<path d="M253 643 c-52 -65 -86 -123 -79 -131 4 -3 26 -12 49 -19 l42 -12 -24
20 c-13 10 -19 19 -13 19 6 0 19 -11 29 -24 11 -13 39 -31 64 -39 35 -12 43
-19 41 -35 -5 -31 15 -35 34 -7 14 22 24 25 73 26 31 0 82 4 114 8 32 4 59 5
62 3 2 -3 -5 -12 -17 -22 -16 -12 -19 -21 -11 -34 8 -15 14 -12 50 27 22 24
57 54 77 66 35 22 46 44 27 55 -5 3 -35 -5 -67 -18 -33 -13 -87 -30 -122 -36
-55 -11 -61 -15 -50 -29 10 -13 8 -12 -8 2 -11 9 -36 17 -54 17 -32 0 -32 1
-16 19 14 16 14 20 2 30 -11 9 -18 7 -34 -14 -12 -14 -30 -25 -44 -25 -23 0
-126 31 -148 45 -6 4 10 32 35 65 36 47 42 60 31 69 -11 9 -20 4 -43 -26z"/>
<path d="M2390 420 l0 -230 30 0 30 0 0 230 0 230 -30 0 -30 0 0 -230z"/>
<path d="M4686 614 c-9 -22 17 -49 39 -40 10 3 15 15 13 28 -4 29 -42 37 -52
12z"/>
<path d="M1160 425 l0 -175 30 0 29 0 3 114 3 114 93 -114 c81 -99 96 -114
122 -114 l30 0 -2 173 -3 172 -32 3 -32 3 -3 -116 -3 -117 -94 116 c-71 88
-100 116 -118 116 l-23 0 0 -175z"/>
<path d="M2605 586 c-122 -54 -129 -250 -12 -317 34 -20 55 -24 112 -23 39 1
82 7 98 13 26 10 27 12 27 96 l0 85 -70 0 c-68 0 -70 -1 -70 -25 0 -22 4 -25
40 -25 l40 0 0 -45 c0 -43 -1 -44 -35 -51 -50 -9 -98 3 -124 30 -48 51 -46
160 4 204 31 27 110 30 155 7 27 -14 30 -14 40 4 15 28 14 31 -25 47 -43 17
-140 18 -180 0z"/>
<path d="M3120 585 c-21 -25 -100 -319 -89 -330 17 -17 44 10 53 54 l9 42 80
-3 80 -3 11 -39 c12 -42 39 -67 55 -51 8 9 -2 53 -59 247 -11 37 -27 74 -36
82 -20 21 -88 21 -104 1z m75 -35 c6 -10 45 -144 45 -155 0 -3 -29 -5 -65 -5
-36 0 -65 3 -65 6 0 15 33 130 41 146 11 20 34 24 44 8z"/>
<path d="M3400 425 l0 -176 23 3 c22 3 22 4 22 173 0 169 0 170 -22 173 l-23
3 0 -176z"/>
<path d="M3693 590 c-26 -11 -43 -40 -43 -75 0 -32 44 -78 112 -117 57 -33 73
-58 53 -84 -14 -20 -80 -25 -137 -11 -25 7 -28 5 -28 -17 0 -29 20 -36 108
-36 57 0 67 3 93 29 54 54 34 104 -67 167 -73 45 -88 62 -78 88 6 15 62 29 85
22 57 -18 69 -17 69 8 0 16 -7 26 -22 30 -33 8 -119 6 -145 -4z"/>
<path d="M2180 540 c0 -25 -4 -30 -25 -30 -20 0 -25 -5 -25 -25 0 -20 5 -25
25 -25 25 0 25 -1 25 -81 0 -94 8 -114 52 -128 32 -11 96 -2 91 12 -2 4 -3 13
-3 21 0 10 -13 16 -37 18 l-38 3 -3 78 -3 77 36 0 c31 0 35 3 35 25 0 22 -4
25 -35 25 -32 0 -35 2 -35 30 0 27 -3 30 -30 30 -27 0 -30 -3 -30 -30z"/>
<path d="M1610 507 c-69 -24 -102 -125 -65 -197 34 -66 153 -87 217 -38 15 12
15 15 2 33 -12 16 -18 18 -34 7 -33 -21 -94 -15 -118 11 -12 13 -22 26 -22 30
0 4 48 7 106 7 l107 0 -6 36 c-15 92 -100 143 -187 111z m113 -69 c9 -11 17
-24 17 -29 0 -5 -34 -9 -75 -9 -41 0 -75 3 -75 6 0 3 5 14 11 25 22 42 89 46
122 7z"/>
<path d="M3994 510 c-40 -16 -54 -49 -54 -128 0 -68 2 -76 29 -103 26 -26 36
-29 93 -29 67 0 107 17 94 39 -6 8 -24 10 -59 6 -65 -7 -101 9 -105 48 l-3 27
85 0 86 0 0 49 c0 43 -4 53 -31 75 -32 27 -91 34 -135 16z m104 -46 c12 -8 22
-24 22 -35 0 -17 -7 -19 -65 -19 -62 0 -65 1 -65 25 0 42 64 60 108 29z"/>
<path d="M4263 508 c-34 -16 -44 -56 -41 -159 3 -86 5 -94 23 -94 18 0 20 8
25 102 3 56 8 105 13 109 4 4 21 7 37 7 25 0 30 4 30 24 0 19 -5 23 -32 22
-18 0 -43 -5 -55 -11z"/>
<path d="M4858 504 c-39 -21 -48 -43 -48 -124 0 -66 2 -74 30 -101 27 -27 35
-30 87 -27 52 3 58 6 61 26 3 21 1 22 -37 16 -30 -5 -48 -2 -66 10 -22 15 -25
23 -25 80 0 78 13 92 82 89 40 -1 48 2 48 17 0 10 -7 21 -16 24 -28 11 -88 6
-116 -10z"/>
<path d="M5084 510 c-40 -16 -54 -49 -54 -128 0 -68 2 -76 29 -103 26 -26 36
-29 93 -29 67 0 107 17 94 39 -6 8 -24 10 -59 6 -65 -7 -101 9 -105 48 l-3 27
85 0 86 0 0 49 c0 43 -4 53 -31 75 -32 27 -91 34 -135 16z m104 -46 c12 -8 22
-24 22 -35 0 -17 -7 -19 -65 -19 -62 0 -65 1 -65 25 0 42 64 60 108 29z"/>
<path d="M5353 510 c-26 -10 -38 -48 -29 -86 5 -19 22 -32 70 -54 35 -16 66
-36 69 -44 10 -25 -29 -39 -89 -31 -49 6 -54 5 -54 -13 0 -25 18 -32 89 -32
78 0 103 18 99 73 -3 41 -5 43 -70 76 -98 49 -88 89 19 74 38 -5 43 -4 43 14
0 13 -9 23 -22 27 -33 8 -99 6 -125 -4z"/>
<path d="M1846 498 c4 -7 22 -31 39 -53 50 -63 50 -61 -4 -130 l-51 -65 34 0
c30 0 40 7 70 45 l34 46 32 -46 c27 -39 36 -45 66 -45 l35 0 -19 28 c-11 15
-34 45 -50 67 l-30 39 44 57 c24 32 44 60 44 63 0 3 -12 6 -27 6 -20 0 -38
-11 -63 -41 l-36 -41 -28 41 c-24 34 -34 41 -63 41 -25 0 -32 -3 -27 -12z"/>
<path d="M4407 408 c35 -146 39 -152 94 -156 61 -4 72 10 103 135 32 124 32
123 3 123 -21 0 -25 -8 -41 -76 -34 -142 -35 -146 -59 -142 -19 3 -26 17 -48
108 -24 96 -29 105 -51 108 l-25 3 24 -103z"/>
<path d="M4692 383 c3 -120 4 -128 23 -128 19 0 20 8 23 128 l3 127 -26 0 -26
0 3 -127z"/>
<path d="M140 460 c-11 -21 -29 -62 -40 -89 -19 -48 -19 -51 -1 -60 9 -6 29
-11 43 -13 14 -2 32 -9 39 -15 8 -6 32 -16 54 -23 53 -17 58 -20 47 -33 -18
-23 -20 -57 -7 -99 10 -33 14 -37 15 -18 0 14 6 48 13 75 l13 50 85 -4 c46 -2
87 -5 91 -7 4 -3 3 -15 -1 -27 -5 -12 -5 -40 -2 -62 l7 -40 19 63 c10 35 23
65 29 67 6 2 28 6 49 10 28 4 37 10 33 20 -4 12 -2 13 14 3 15 -10 29 -10 65
0 65 17 85 16 57 -4 -34 -23 -60 -83 -55 -122 5 -33 6 -33 39 35 18 37 53 89
78 115 29 30 44 53 40 63 -7 17 -16 19 -30 6 -5 -5 -46 -21 -92 -36 -60 -20
-82 -31 -78 -41 3 -8 1 -14 -4 -14 -6 0 -10 5 -10 10 0 6 -26 10 -57 11 -32 0
-51 3 -43 6 22 8 39 33 33 49 -9 24 -22 16 -43 -26 -19 -37 -24 -40 -61 -40
-35 0 -40 -3 -35 -17 6 -17 5 -17 -8 0 -7 9 -18 17 -24 17 -6 0 -9 -8 -5 -17
4 -12 0 -11 -11 5 -10 12 -25 22 -35 22 -25 0 -33 11 -20 26 8 10 7 19 -4 34
-15 21 -15 21 -27 -14 -6 -20 -15 -36 -18 -36 -4 0 -42 12 -85 26 -87 29 -86
26 -40 117 22 45 23 67 3 67 -5 0 -19 -18 -30 -40z m10 -145 c11 -13 10 -14
-4 -9 -9 3 -16 10 -16 15 0 13 6 11 20 -6z"/>
<path d="M75 287 c-10 -27 -35 -143 -35 -163 0 -18 14 -26 93 -52 139 -45 212
-55 382 -50 108 4 171 11 227 26 109 30 168 58 168 82 0 13 -5 18 -15 14 -8
-4 -15 -14 -15 -23 0 -12 -2 -13 -9 -3 -7 11 -24 9 -90 -12 -45 -14 -89 -26
-97 -26 -7 0 -14 -8 -14 -17 0 -10 -4 -14 -8 -8 -4 6 -79 11 -182 12 -193 2
-243 5 -250 14 -3 3 -36 16 -73 29 -38 12 -71 28 -73 35 -3 8 2 41 10 75 19
74 19 67 1 74 -9 3 -18 0 -20 -7z"/>
</g>
</svg>
